<?xml version="1.0" standalone="no"?>
<!DOCTYPE svg PUBLIC "-//W3C//DTD SVG 20010904//EN"
 "http://www.w3.org/TR/2001/REC-SVG-20010904/DTD/svg10.dtd">
<svg version="1.0" xmlns="http://www.w3.org/2000/svg"
 width="954.000000pt" height="954.000000pt" viewBox="0 0 954.000000 954.000000"
 preserveAspectRatio="xMidYMid meet">
<metadata>
Created by potrace 1.14, written by Peter Selinger 2001-2017
</metadata>
<g transform="translate(0.000000,954.000000) scale(0.100000,-0.100000)"
fill="#000000" stroke="none">
<path d="M5561 5945 c-26 -44 -60 -101 -74 -127 -15 -26 -33 -53 -40 -60 -7
-7 -15 -17 -17 -23 -8 -28 -24 -55 -32 -55 -4 0 -8 -4 -8 -9 0 -5 -19 -41 -42
-81 -24 -39 -47 -79 -53 -89 -71 -122 -99 -161 -112 -156 -8 3 -40 8 -71 12
-40 4 -51 8 -37 14 19 7 19 7 2 14 -11 5 -14 10 -8 14 9 6 17 31 20 64 1 4 25
7 55 7 39 0 55 4 60 15 4 12 -4 15 -45 15 l-50 0 2 38 c1 21 17 62 37 97 19
33 36 62 38 65 1 3 -30 6 -70 6 l-72 1 -62 -103 -63 -103 -56 -3 c-74 -4 -83
-26 -14 -30 l51 -3 -42 -70 c-23 -38 -45 -71 -50 -73 -4 -2 -8 -8 -8 -14 0
-12 -88 -160 -100 -168 -4 -3 -12 -21 -19 -41 l-12 -36 -79 -6 c-43 -4 -95
-13 -114 -21 l-36 -15 0 68 c0 48 -4 72 -14 81 -48 39 -261 48 -346 14 l-40
-16 0 -99 0 -99 -42 7 c-70 13 -244 8 -262 -6 -14 -12 -16 -5 -16 62 0 105 -9
111 -190 111 -74 1 -154 -3 -177 -7 l-42 -9 -3 94 -3 93 -55 18 c-38 13 -85
19 -155 19 -90 0 -123 -5 -177 -27 -16 -6 -18 0 -18 57 l0 65 -42 19 c-58 26
-264 27 -320 2 l-38 -17 0 -176 0 -176 -22 13 c-33 19 -234 17 -273 -2 l-30
-15 -3 -1003 -2 -1002 27 -11 c39 -15 220 -23 263 -12 25 7 42 5 62 -4 34 -17
209 -24 300 -13 52 7 77 6 109 -5 54 -19 246 -20 318 -1 48 12 58 12 90 -2 47
-21 278 -23 334 -3 31 10 47 11 82 1 28 -8 82 -10 156 -6 143 7 121 7 274 -2
72 -4 153 -3 180 1 28 5 70 7 95 5 97 -6 326 -1 350 9 18 8 36 7 65 -4 86 -30
311 -24 353 9 9 8 12 229 12 1041 0 567 3 1027 7 1024 8 -9 53 32 53 49 0 6 7
17 15 24 9 7 14 19 11 27 -3 8 -1 11 4 8 6 -3 10 1 10 9 0 9 6 16 13 16 8 0 7
4 -3 10 -12 8 -12 10 -1 10 11 0 11 3 0 18 -13 16 -13 16 7 -1 21 -18 34 -14
34 11 0 8 -6 12 -15 8 -19 -7 -19 1 -1 19 10 11 16 11 26 2 10 -10 11 -7 5 12
-6 20 -5 23 10 17 16 -6 16 -4 4 11 -8 9 -9 14 -2 10 7 -4 14 1 18 13 4 11 11
18 16 15 5 -4 9 -1 9 4 0 19 80 62 108 59 29 -3 38 -24 28 -63 -3 -13 -43 -79
-89 -147 -105 -156 -122 -195 -122 -276 0 -51 4 -67 20 -78 13 -10 15 -14 4
-14 -8 0 -10 -3 -4 -8 6 -4 19 -23 30 -42 18 -32 20 -58 23 -283 2 -153 -1
-267 -7 -298 -10 -46 -9 -52 12 -74 23 -25 23 -25 160 -18 75 3 137 9 137 14
0 4 9 5 20 2 14 -4 20 0 20 11 0 9 6 16 14 16 8 0 25 13 39 29 14 17 27 28 29
25 9 -8 33 28 33 50 1 23 5 26 37 26 12 0 18 -3 15 -7 -4 -3 -1 -13 7 -22 8
-9 14 -20 14 -25 -1 -4 5 -17 13 -28 40 -57 52 -69 67 -63 9 3 13 3 9 -1 -12
-12 52 -34 98 -34 56 0 106 18 129 48 10 13 31 35 45 48 14 13 22 24 18 24 -4
0 -1 13 8 30 8 16 15 32 15 35 0 3 5 23 11 45 14 46 39 62 39 25 0 -13 5 -27
10 -30 6 -4 7 -11 4 -17 -4 -5 3 -23 15 -39 12 -16 19 -34 16 -39 -4 -6 -1 -9
5 -8 7 2 14 -5 15 -15 3 -17 42 -56 58 -57 4 0 7 -6 7 -12 0 -7 11 -18 23 -24
32 -14 144 -18 159 -4 7 5 25 20 41 31 15 11 24 25 21 31 -5 7 -2 8 5 4 8 -5
14 0 18 13 3 11 16 27 29 36 15 10 24 25 24 43 1 15 7 38 15 52 l13 25 7 -27
c8 -32 2 -125 -9 -151 -7 -14 -4 -20 13 -24 11 -3 21 -11 21 -18 0 -25 72 -28
124 -5 43 18 47 23 41 43 -5 12 -10 124 -12 249 -4 207 -3 229 13 245 24 25
57 26 51 2 -3 -10 -2 -19 2 -21 9 -4 63 -333 69 -425 6 -89 18 -103 98 -108
46 -3 63 1 88 18 17 12 33 23 35 24 2 2 -4 23 -14 48 -9 25 -14 52 -11 61 3 8
2 12 -4 9 -6 -3 -10 1 -10 10 0 10 -7 47 -15 84 -18 80 -105 514 -105 524 0 3
6 5 13 2 18 -6 64 55 48 64 -9 6 -3 16 18 34 17 14 31 28 31 31 0 3 -34 6 -75
6 -72 0 -75 -1 -75 -23 0 -34 -129 -215 -154 -217 -9 0 -2 181 9 218 7 22 7
22 -100 22 -98 0 -106 -1 -99 -17 4 -10 9 -70 11 -133 1 -63 0 -108 -3 -100
-7 18 -15 40 -40 100 -20 49 -89 130 -109 130 -8 0 -15 6 -17 13 -3 8 -27 12
-74 12 -58 0 -76 -5 -110 -27 -65 -42 -112 -119 -135 -222 l-13 -58 -16 68
c-16 69 -51 147 -70 159 -5 3 -14 14 -19 24 -8 14 5 36 69 112 44 52 80 97 80
102 0 22 -33 1 -71 -45 -84 -104 -121 -138 -139 -128 -9 5 -40 12 -68 16 -42
5 -59 3 -94 -16 -59 -30 -95 -66 -125 -124 -25 -49 -25 -49 -45 -29 -11 12
-21 37 -22 59 -2 21 -1 28 1 14 7 -36 20 -46 15 -11 -3 22 1 32 16 40 11 6 27
29 36 51 9 22 23 40 31 40 8 0 15 4 15 8 0 5 12 14 27 21 19 9 23 15 15 20
-18 11 1 24 58 40 25 7 79 25 120 39 84 29 110 33 110 18 0 -6 5 -5 12 2 10
10 10 15 -1 21 -9 6 -10 11 -2 15 6 4 11 4 11 0 0 -5 14 11 31 34 41 57 43
106 6 138 -40 35 -72 39 -148 21 -168 -40 -342 -157 -428 -287 -81 -121 -80
-120 -135 -120 -70 0 -85 11 -58 41 15 16 20 29 15 47 -5 21 -3 24 11 19 13
-5 16 0 15 36 -1 23 4 63 10 88 28 120 -70 218 -174 175 -21 -9 -40 -14 -43
-11 -3 3 0 5 7 5 7 0 10 4 7 8 -3 5 5 24 18 43 13 19 21 39 19 45 -2 7 7 20
20 31 13 10 30 29 37 43 7 14 19 31 27 38 7 7 13 19 13 26 0 7 9 22 20 34 12
12 18 22 15 22 -4 0 3 13 14 29 16 22 18 31 9 35 -7 4 -4 5 7 3 16 -3 20 2 21
25 1 15 -3 28 -8 28 -6 0 6 29 26 65 20 36 36 67 36 68 0 1 -34 2 -76 2 l-76
0 -47 -80z m-88 -418 c3 -8 0 -14 -7 -14 -7 0 -13 6 -13 14 0 7 4 13 8 13 4 0
9 -6 12 -13z m885 -80 c6 -31 -46 -96 -111 -138 -33 -22 -67 -37 -74 -34 -8 2
-16 -2 -19 -9 -4 -12 -53 -36 -70 -36 -2 0 -4 14 -4 31 0 21 -4 28 -12 23 -7
-4 -4 2 6 14 21 25 42 28 49 10 4 -10 6 -10 6 -1 1 6 -4 15 -11 19 -11 7 87
104 105 104 5 0 21 9 35 20 33 27 95 24 100 -3z m-317 -200 c-10 -9 -11 -8 -5
6 3 10 9 15 12 12 3 -3 0 -11 -7 -18z m-743 -27 c-7 -10 -14 -17 -17 -15 -4 4
18 35 25 35 2 0 -1 -9 -8 -20z m-2033 -30 c4 -7 -53 -10 -164 -10 -107 0 -171
4 -171 10 0 6 61 10 164 10 99 0 167 -4 171 -10z m0 -70 c4 -7 -53 -10 -165
-10 -112 0 -169 3 -165 10 4 6 70 10 165 10 95 0 161 -4 165 -10z m2535 -35
c0 -8 -4 -15 -10 -15 -5 0 -7 7 -4 15 4 8 8 15 10 15 2 0 4 -7 4 -15z m-2535
-35 c4 -7 -53 -10 -164 -10 -107 0 -171 4 -171 10 0 6 61 10 164 10 99 0 167
-4 171 -10z m-833 -52 c3 -7 3 -419 0 -916 l-5 -903 -96 3 -96 3 -3 130 c-2
72 0 482 3 913 l7 782 93 0 c65 0 94 -4 97 -12z m4908 -18 c-6 -11 -15 -20
-20 -20 -6 0 -2 9 7 20 10 11 19 20 21 20 1 0 -2 -9 -8 -20z m-1680 6 c0 -2
-8 -10 -17 -17 -16 -13 -17 -12 -4 4 13 16 21 21 21 13z m506 -21 c-15 -14
-30 -25 -33 -25 -4 0 4 11 17 25 13 14 28 25 33 25 6 0 -2 -11 -17 -25z m538
4 c44 -20 47 -38 52 -299 6 -297 -16 -415 -76 -408 -51 6 -67 39 -81 170 -14
125 -6 452 11 473 6 7 10 19 9 27 -3 25 1 39 10 33 5 -3 12 -1 16 5 8 13 28
13 59 -1z m-976 -15 c23 -16 28 -47 13 -87 -10 -26 -91 -124 -91 -110 0 4 -5
1 -10 -7 -7 -10 -10 13 -10 73 0 83 2 91 27 118 32 33 40 35 71 13z m486 -16
c7 -7 20 -28 29 -47 15 -30 17 -66 15 -285 -3 -237 -4 -254 -26 -298 -19 -41
-27 -48 -51 -48 -63 0 -81 68 -87 328 -3 112 -1 201 3 199 5 -3 8 18 7 46 -2
51 -1 52 44 84 55 38 50 36 66 21z m-1885 -25 c0 -11 -3 -13 -6 -5 -3 8 -29
12 -79 12 l-74 0 0 -835 0 -835 75 0 75 0 3 423 2 422 3 -427 2 -428 -85 0
-85 0 0 845 0 845 85 0 c75 0 85 -2 84 -17z m-2 -516 c-1 -89 -3 -13 -3 168 0
182 2 254 3 162 2 -93 2 -241 0 -330z m1598 441 c-1 -18 -2 -64 -3 -103 l-3
-70 -20 28 c-12 15 -35 35 -52 44 -31 15 -31 16 -9 24 12 5 22 13 22 19 0 5 6
10 14 10 18 0 35 21 40 51 6 30 5 29 10 29 1 0 2 -15 1 -32z m-2050 -63 c39 0
84 4 100 8 25 7 28 6 17 -5 -18 -19 -206 -18 -224 1 -11 11 -9 12 12 5 14 -5
57 -9 95 -9z m-292 -457 c4 -199 7 -489 7 -645 l0 -283 -72 0 -73 0 2 252 c2
139 6 430 9 646 l6 392 58 0 57 0 6 -362z m2157 330 c0 -5 6 -6 13 -2 6 4 9 4
5 -1 -4 -4 -2 -15 5 -23 20 -24 15 -248 -6 -294 -18 -40 -60 -68 -102 -68
l-25 0 0 164 c0 91 4 175 9 189 15 39 101 70 101 35z m-683 -34 c-3 -3 -12 -4
-19 -1 -8 3 -5 6 6 6 11 1 17 -2 13 -5z m-37 -7 c0 -2 -10 -12 -22 -23 l-23
-19 19 23 c18 21 26 27 26 19z m71 -14 c13 -16 12 -17 -3 -4 -17 13 -22 21
-14 21 2 0 10 -8 17 -17z m-118 -48 c-3 -9 -8 -14 -10 -11 -3 3 -2 9 2 15 9
16 15 13 8 -4z m-2198 -80 c26 -52 30 -72 33 -162 8 -202 -61 -358 -142 -322
-56 26 -86 118 -86 263 0 149 37 262 93 290 43 20 64 6 102 -69z m2365 30 c0
-5 -5 -3 -10 5 -5 8 -10 20 -10 25 0 6 5 3 10 -5 5 -8 10 -19 10 -25z m-192
-23 c-6 -24 -13 -41 -15 -38 -2 2 1 23 7 46 6 23 13 40 15 38 2 -2 -1 -23 -7
-46z m209 -64 c-3 -8 -6 -5 -6 6 -1 11 2 17 5 13 3 -3 4 -12 1 -19z m-1287 -3
c25 0 65 4 90 8 36 6 43 6 32 -5 -17 -17 -206 -18 -224 0 -10 10 -6 11 22 5
19 -5 55 -8 80 -8z m1051 -67 c-18 -118 -20 -127 -16 -52 5 78 15 137 22 130
3 -2 0 -37 -6 -78z m246 10 c-3 -7 -5 -2 -5 12 0 14 2 19 5 13 2 -7 2 -19 0
-25z m-489 -12 c60 -31 102 -154 102 -295 0 -102 -15 -173 -49 -245 -28 -57
-51 -77 -98 -83 -50 -7 -83 20 -119 95 -24 49 -28 73 -32 173 -5 130 6 198 44
276 25 52 72 93 107 93 10 0 30 -6 45 -14z m-1281 -43 c-3 -10 -5 -4 -5 12 0
17 2 24 5 18 2 -7 2 -21 0 -30z m1780 -55 c-2 -13 -4 -3 -4 22 0 25 2 35 4 23
2 -13 2 -33 0 -45z m-1780 -130 c-2 -29 -3 -8 -3 47 0 55 1 79 3 53 2 -26 2
-71 0 -100z m930 25 c-3 -10 -5 -2 -5 17 0 19 2 27 5 18 2 -10 2 -26 0 -35z
m570 -60 c-2 -21 -4 -4 -4 37 0 41 2 58 4 38 2 -21 2 -55 0 -75z m280 -85 c-2
-13 -4 -3 -4 22 0 25 2 35 4 23 2 -13 2 -33 0 -45z m-1297 37 c25 0 63 3 85 8
31 6 36 5 22 -4 -33 -19 -158 -23 -197 -6 l-35 16 40 -7 c22 -4 60 -7 85 -7z
m1027 -92 c-2 -16 -4 -3 -4 27 0 30 2 43 4 28 2 -16 2 -40 0 -55z m-1464 -646
l42 -4 -47 -1 -48 -2 2 358 3 357 2 -352 3 -352 43 -4z m1724 611 c-3 -8 -6
-5 -6 6 -1 11 2 17 5 13 3 -3 4 -12 1 -19z m-244 -53 c4 -34 3 -42 -3 -25 -8
25 -13 87 -6 79 2 -2 6 -26 9 -54z m234 3 c-3 -8 -6 -5 -6 6 -1 11 2 17 5 13
3 -3 4 -12 1 -19z m-10 -50 c-3 -8 -6 -5 -6 6 -1 11 2 17 5 13 3 -3 4 -12 1
-19z m-17 -55 c-11 -17 -11 -17 -6 0 3 10 6 24 7 30 0 9 2 9 5 0 3 -7 0 -20
-6 -30z m-171 -28 c0 -5 -4 -3 -9 5 -5 8 -9 22 -9 30 0 16 17 -16 18 -35z
m161 -3 c0 -5 -7 -17 -15 -28 -14 -18 -14 -17 -4 9 12 27 19 34 19 19z m-146
-28 c3 -8 2 -12 -4 -9 -6 3 -10 10 -10 16 0 14 7 11 14 -7z m-1099 -19 c44 0
91 4 105 9 21 7 23 6 12 -5 -9 -9 -44 -15 -105 -17 -74 -3 -96 0 -112 13 l-20
17 20 -9 c11 -4 56 -8 100 -8z m1180 -35 c-3 -5 -14 -10 -23 -9 -14 0 -13 2 3
9 27 11 27 11 20 0z m-1405 -330 c0 -5 -19 -9 -42 -9 l-43 2 40 7 c22 4 41 8
43 9 1 0 2 -3 2 -9z m-390 -20 c10 -6 -44 -9 -160 -8 -127 1 -156 3 -105 8
113 10 249 10 265 0z m717 -24 c-30 -12 -178 -13 -199 -1 -11 7 20 10 102 10
79 0 111 -3 97 -9z m-789 -53 c-49 -2 -127 -2 -175 0 -49 1 -9 3 87 3 96 0
136 -2 88 -3z m72 -67 c8 -2 -63 -4 -158 -5 -95 0 -171 3 -168 7 5 8 289 6
326 -2z"/>
<path d="M2248 4180 c-1 -451 -3 -857 -3 -902 l0 -83 85 0 85 0 5 825 c3 454
3 860 1 903 l-4 77 -83 0 -84 0 -2 -820z"/>
<path d="M5635 3959 c-22 -12 -53 -33 -68 -47 -27 -26 -82 -129 -102 -192 -3
-11 -16 -158 -17 -200 -2 -64 13 -189 23 -196 5 -3 9 -15 9 -27 0 -12 6 -34
14 -48 7 -14 16 -37 19 -51 4 -15 27 -44 52 -66 25 -22 45 -45 45 -52 0 -6 6
-10 13 -7 6 2 24 -2 39 -9 15 -8 45 -12 70 -10 24 2 51 4 61 5 9 1 17 7 17 14
0 6 11 17 25 24 14 6 23 7 19 2 -3 -5 2 -9 11 -9 10 0 13 -5 9 -12 -4 -7 -4
-10 1 -6 4 4 13 4 19 -1 6 -5 90 -12 186 -14 l175 -6 23 26 c12 14 22 37 22
51 0 19 3 22 13 13 8 -6 18 -7 22 -3 5 4 5 1 1 -6 -5 -7 1 -15 16 -21 13 -5
30 -18 38 -30 8 -13 25 -21 42 -21 14 0 38 -4 52 -9 35 -14 157 7 177 31 9 10
21 18 28 18 6 0 11 7 11 16 0 9 5 12 12 8 6 -4 8 -3 5 3 -4 6 2 21 12 34 10
13 21 31 24 39 3 8 6 0 6 -18 1 -18 -4 -41 -11 -51 -10 -16 -7 -23 21 -48 l32
-30 132 3 c117 3 137 6 179 28 57 29 98 75 98 108 0 13 7 34 16 46 8 12 12 22
9 22 -3 0 -1 9 5 21 17 31 13 194 -5 250 -10 28 -30 60 -49 77 -36 32 -38 51
-6 94 11 16 18 33 15 38 -3 5 -1 11 4 14 22 14 23 84 2 131 -16 37 -29 50 -68
68 -45 21 -65 22 -293 25 -135 1 -251 -1 -257 -6 -9 -6 -10 -17 -2 -46 15 -53
7 -702 -8 -738 -25 -56 -85 -43 -103 22 -10 38 -10 696 1 745 4 19 -1 20 -96
20 -95 0 -100 -1 -96 -20 2 -11 5 -142 7 -292 2 -216 0 -272 -10 -276 -7 -3
-16 -25 -20 -49 -18 -115 -65 -169 -159 -183 l-48 -6 4 393 c2 216 5 402 8
413 4 19 -2 20 -191 23 -182 2 -198 1 -235 -19z m160 -107 c5 -12 15 -20 21
-18 12 5 34 -76 34 -125 0 -19 5 -29 15 -29 12 0 15 -18 15 -99 0 -79 -3 -100
-15 -105 -12 -4 -15 -27 -15 -116 0 -153 -29 -210 -108 -210 -36 0 -66 31 -87
89 -25 70 -38 266 -26 392 11 114 26 158 77 218 32 38 73 40 89 3z m1232 2
c37 -28 41 -50 16 -101 -16 -34 -83 -113 -96 -113 -4 0 -7 45 -7 100 0 140 19
166 87 114z m13 -329 c19 -7 31 -14 26 -14 -5 -1 -3 -8 5 -17 7 -9 15 -51 17
-98 8 -148 -35 -236 -114 -236 l-34 0 0 157 c0 221 11 242 100 208z m-1203
-421 c-3 -3 -12 -4 -19 -1 -8 3 -5 6 6 6 11 1 17 -2 13 -5z"/>
<path d="M3880 2540 l0 -80 55 0 c42 0 55 3 55 15 0 10 -11 15 -35 15 -24 0
-35 5 -35 15 0 10 10 15 30 15 23 0 30 4 30 20 0 16 -7 20 -30 20 -16 0 -30 5
-30 10 0 6 16 10 35 10 28 0 35 4 35 20 0 18 -7 20 -55 20 l-55 0 0 -80z"/>
<path d="M4136 2607 c-12 -9 -17 -23 -14 -42 2 -23 10 -31 36 -39 17 -5 32
-15 32 -22 0 -17 -22 -18 -37 -3 -13 13 -56 2 -48 -12 4 -5 20 -16 37 -25 62
-32 131 35 78 78 -12 10 -31 18 -41 18 -10 0 -19 5 -19 11 0 7 11 9 29 6 19
-4 33 -1 41 8 10 12 7 17 -15 25 -35 13 -58 13 -79 -3z"/>
<path d="M4350 2600 c0 -13 7 -20 20 -20 18 0 20 -7 20 -60 0 -57 1 -60 25
-60 24 0 25 3 25 60 0 53 2 60 20 60 13 0 20 7 20 20 0 18 -7 20 -65 20 -58 0
-65 -2 -65 -20z"/>
<path d="M4775 2607 c-26 -19 -10 -38 25 -30 41 8 38 -10 -5 -43 -23 -17 -35
-35 -35 -50 0 -22 4 -24 55 -24 42 0 55 3 55 15 0 11 -11 15 -36 15 l-37 0 34
23 c58 39 48 107 -16 107 -12 0 -29 -6 -40 -13z"/>
<path d="M5023 2605 c-45 -32 -37 -121 13 -143 50 -23 94 15 94 82 0 64 -57
96 -107 61z m63 -49 c7 -28 -12 -69 -29 -63 -13 4 -22 51 -13 73 9 22 35 16
42 -10z"/>
<path d="M5264 2606 c-18 -14 -18 -16 -1 -33 10 -10 17 -13 17 -5 0 7 9 12 20
12 29 0 25 -10 -20 -51 -54 -50 -47 -69 26 -69 41 0 54 4 54 15 0 10 -10 15
-32 15 l-33 1 33 27 c22 18 32 36 32 54 0 44 -56 63 -96 34z"/>
<path d="M5511 2569 c-41 -66 -40 -79 4 -79 24 0 35 -5 35 -15 0 -24 33 -17
54 11 13 19 15 28 7 34 -7 4 -12 18 -12 31 -2 53 -9 69 -33 69 -17 0 -31 -13
-55 -51z"/>
</g>
</svg>
